<?xml version="1.0" encoding="UTF-8"?>
<svg width="1046px" height="1046px" viewBox="0 0 1046 1046" version="1.1" xmlns="http://www.w3.org/2000/svg" xmlns:xlink="http://www.w3.org/1999/xlink">
    <!-- Generator: Sketch 43.2 (39069) - http://www.bohemiancoding.com/sketch -->
    <title>icon</title>
    <desc>Created with Sketch.</desc>
    <defs>
        <filter x="-1.3%" y="-1.3%" width="102.6%" height="102.6%" filterUnits="objectBoundingBox" id="filter-1">
            <feGaussianBlur stdDeviation="4.4578283" in="SourceGraphic"></feGaussianBlur>
        </filter>
    </defs>
    <g id="Page-1" stroke="none" stroke-width="1" fill="none" fill-rule="evenodd">
        <g id="icon" transform="translate(11.000000, 11.000000)">
            <circle id="Oval" fill="#704ABF" filter="url(#filter-1)" cx="512" cy="512" r="512"></circle>
            <path d="M740.847603,730.666667 L505.496859,730.666667 C473.888106,730.666667 444.659969,725.444319 417.81157,714.999467 C390.963171,704.554614 367.73299,689.604364 348.12033,670.148267 C328.50767,650.692169 313.084354,626.935607 301.849917,598.877867 C290.615481,570.820126 284.998347,539.178843 284.998347,503.953067 C284.998347,472.004107 290.615481,442.615601 301.849917,415.786667 C313.084354,388.957733 328.412465,365.815564 347.834711,346.359467 C367.256956,326.903369 389.820698,311.748321 415.526611,300.893867 C441.232525,290.039412 468.556549,284.612267 497.499504,284.612267 C526.442459,284.612267 553.766483,290.039412 579.472397,300.893867 C605.17831,311.748321 627.742051,326.903369 647.164297,346.359467 C666.586543,365.815564 681.914654,388.957733 693.149091,415.786667 C704.383527,442.615601 710.000661,472.004107 710.000661,503.953067 C710.000661,526.890781 707.430108,547.06338 702.288925,564.471467 C697.147743,581.879554 690.388141,597.2394 682.009917,610.551467 C673.631693,623.863533 664.396744,635.025022 654.304793,644.036267 C644.212842,653.047512 634.406659,660.625036 624.88595,666.769067 L624.88595,667.997867 L740.847603,667.997867 L740.847603,730.666667 Z M495.785785,354.653867 C476.363539,354.653867 458.369669,358.442629 441.803636,366.020267 C425.237603,373.597905 410.956754,384.144999 398.960661,397.661867 C386.964568,411.178734 377.539208,427.152975 370.684297,445.585067 C363.829387,464.017159 360.401983,484.087358 360.401983,505.796267 C360.401983,527.914777 363.829387,548.496971 370.684297,567.543467 C377.539208,586.589962 387.059774,602.973798 399.246281,616.695467 C411.432788,630.417135 425.808843,641.169028 442.374876,648.951467 C458.940909,656.733906 477.12519,660.625067 496.928264,660.625067 C516.731338,660.625067 535.106031,656.733906 552.052892,648.951467 C568.999754,641.169028 583.56622,630.417135 595.752727,616.695467 C607.939234,602.973798 617.4598,586.589962 624.314711,567.543467 C631.169621,548.496971 634.597025,527.914777 634.597025,505.796267 C634.597025,484.087358 631.169621,464.017159 624.314711,445.585067 C617.4598,427.152975 607.939234,411.178734 595.752727,397.661867 C583.56622,384.144999 568.999754,373.597905 552.052892,366.020267 C535.106031,358.442629 516.350516,354.653867 495.785785,354.653867 Z" id="Q" fill="#DFDCFF"></path>
        </g>
    </g>
</svg>